<svg xmlns="http://www.w3.org/2000/svg" width="430" height="430" style="width:100%;height:100%;transform:translate3d(0,0,0);content-visibility:visible" viewBox="0 0 430 430"><defs><clipPath id="a"><path d="M0 0h430v430H0z"/></clipPath><clipPath id="b"><path d="M0 0h430v430H0z"/></clipPath></defs><g clip-path="url(#a)"><g clip-path="url(#b)" style="display:block"><path fill="none" class="primary" style="display:none"/><path fill="none" class="primary" style="display:none"/><path fill="none" class="primary" style="display:none"/><path fill="none" class="primary" style="display:none"/><path fill="none" class="primary" style="display:none"/><g style="display:block"><path fill="none" stroke="#2CA58D" stroke-linecap="round" stroke-linejoin="round" stroke-width="7" d="M214.905 178.588v-5.478c0-20.48-16.602-37.082-37.082-37.082H65.679c-20.48 0-37.082 16.602-37.082 37.082 0 0 0 0 0 0a37.077 37.077 0 0 0 3.705 16.158l36.914 68.892" class="secondary"/><path fill="#2CA58D" d="m399.314 153.913-9.359 9.636a2.997 2.997 0 0 1-1.793.888l-19.885 2.392a3.001 3.001 0 0 1-2.449-.826l-3.862-3.753c-9.55 7.47-131.87 103.86-131.87 142.91v18.28c0 13.255-10.745 24-24 24h-116.5c-13.255 0-24-10.745-24-24V200.99c0-13.255 10.745-24 24-24h116.5c13.255 0 24 10.745 24 24v9.7c22.89 21.94 103.009-64.14 108.989-70.64l-3.615-3.514a3 3 0 0 1-.897-2.419l1.788-19.947a3.004 3.004 0 0 1 .836-1.823l9.359-9.636a3 3 0 0 1 4.241-.062l48.455 47.021a3 3 0 0 1 .062 4.243z" class="secondary"/><path fill="#3A3347" d="M184.766 176.99c0 13.04-10.58 23.62-23.62 23.62h-26.6c-13.04 0-23.61-10.58-23.61-23.62h73.83z" class="quinary"/><path fill="#2CA58D" d="M10.855-46.325v52.77c-12.98 15.83-21.71 30.36-21.71 40.79v-94.47c4.98 4.77 12.67 4.43 21.71.91z" class="secondary" opacity=".5" style="mix-blend-mode:multiply" transform="translate(240.956 258.16)"/><path fill="#FFC738" d="m399.315 153.913-9.36 9.636a2.997 2.997 0 0 1-1.793.888l-19.876 2.392a3 3 0 0 1-2.447-.824l-3.873-3.755-22.88-22.2-3.616-3.514a3 3 0 0 1-.897-2.419l1.788-19.948a3 3 0 0 1 .836-1.822l9.359-9.636a3.001 3.001 0 0 1 4.242-.063l48.454 47.022a3 3 0 0 1 .063 4.243z" class="tertiary"/><path fill="none" stroke="#FFC738" stroke-width="1.2" d="m399.315 153.913-9.36 9.636a2.997 2.997 0 0 1-1.793.888l-19.876 2.392a3 3 0 0 1-2.447-.824l-3.873-3.755-22.88-22.2-3.616-3.514a3 3 0 0 1-.897-2.419l1.788-19.948a3 3 0 0 1 .836-1.822l9.359-9.636a3.001 3.001 0 0 1 4.242-.063l48.454 47.022a3 3 0 0 1 .063 4.243z" class="tertiary"/><g opacity=".5" style="mix-blend-mode:multiply"><path fill="#FFC738" d="m378.496 165.6-10.21 1.229a3 3 0 0 1-2.447-.824l-3.873-3.755-22.88-22.2-3.615-3.514a3 3 0 0 1-.897-2.419l1.787-19.947a3.004 3.004 0 0 1 .836-1.823l9.36-9.636a3 3 0 0 1 4.241-.063l4.578 4.442-5.108 5.257a2.997 2.997 0 0 0-.837 1.823l-1.787 19.947a3 3 0 0 0 .897 2.419l3.615 3.514 22.88 22.2 3.46 3.35z" class="tertiary"/><path fill="none" stroke="#FFC738" stroke-width="1.2" d="m378.496 165.6-10.21 1.229a3 3 0 0 1-2.447-.824l-3.873-3.755-22.88-22.2-3.615-3.514a3 3 0 0 1-.897-2.419l1.787-19.947a3.004 3.004 0 0 1 .836-1.823l9.36-9.636a3 3 0 0 1 4.241-.063l4.578 4.442-5.108 5.257a2.997 2.997 0 0 0-.837 1.823l-1.787 19.947a3 3 0 0 0 .897 2.419l3.615 3.514 22.88 22.2 3.46 3.35z" class="tertiary"/></g><path fill="#2CA58D" d="M-1.91-61.225v43.83h.01v45.86h-.01v32.76c0 13.26 10.74 24 24 24H1.91c-13.26 0-24-10.74-24-24v-122.45c0-13.26 10.74-24 24-24h20.18c-13.26 0-24 10.74-24 24z" class="secondary" opacity=".5" style="mix-blend-mode:multiply" transform="translate(87.686 262.215)"/><path fill="#F24C00" d="M230.101 244.82v45.86h-164.5v-45.86h164.5z" class="quaternary"/><path fill="#F24C00" d="M10.09-22.93v45.86h-20.18v-45.86h20.18z" class="quaternary" opacity=".5" style="mix-blend-mode:multiply" transform="translate(75.686 267.75)"/></g></g></g></svg>